<svg xmlns="http://www.w3.org/2000/svg" width="24" height="24"><path d="M13 2.5V5c0 2.355 0 3.535.73 4.27.735.73 1.915.73 4.27.73h4" style="fill:none;stroke-width:1.5;stroke-linecap:butt;stroke-linejoin:miter;stroke:#1c274c;stroke-opacity:1;stroke-miterlimit:4"/><path d="M8.5 18.5v-5m0 0-2 1.875m2-1.875 2 1.875" style="fill:none;stroke-width:1.5;stroke-linecap:round;stroke-linejoin:round;stroke:#1c274c;stroke-opacity:1;stroke-miterlimit:4"/><path d="M2.75 10a.75.75 0 0 0-1.5 0Zm18.5 4a.75.75 0 0 0 1.5 0Zm-5.855-9.945-.504.554Zm3.957 3.562-.5.559Zm2.3 2.535-.683.309ZM3.172 20.828l.531-.531Zm17.656 0-.531-.531ZM1.355 5.926a.75.75 0 0 0 1.493.148Zm21.29 12.148a.75.75 0 0 0-1.493-.148ZM14 21.25h-4v1.5h4ZM2.75 14v-4h-1.5v4Zm18.5-.438V14h1.5v-.438ZM14.89 4.61l3.962 3.567 1-1.117-3.957-3.563Zm7.86 8.954c0-1.688.016-2.758-.41-3.715l-1.371.613c.265.594.281 1.281.281 3.101Zm-3.898-5.387c1.351 1.215 1.851 1.687 2.117 2.285l1.37-.613c-.425-.957-1.23-1.66-2.487-2.79Zm-8.82-5.426c1.581 0 2.175.012 2.71.215l.535-1.399c-.851-.328-1.78-.316-3.246-.316Zm5.863.746c-1.086-.976-1.766-1.605-2.618-1.93l-.535 1.399c.531.207.98.594 2.149 1.644ZM10 21.25c-1.906 0-3.262 0-4.29-.14-1.007-.133-1.585-.387-2.007-.813l-1.062 1.062c.75.746 1.699 1.078 2.87 1.239 1.15.152 2.626.152 4.489.152ZM1.25 14c0 1.863 0 3.34.152 4.488.16 1.172.493 2.121 1.239 2.871l1.062-1.062c-.426-.422-.68-1-.812-2.008C2.75 17.262 2.75 15.906 2.75 14ZM14 22.75c1.863 0 3.34 0 4.488-.152 1.172-.16 2.121-.493 2.871-1.239l-1.062-1.062c-.422.426-1 .68-2.008.812-1.027.141-2.383.141-4.289.141Zm-3.969-21.5c-1.875 0-3.355 0-4.511.152-1.176.157-2.13.489-2.88 1.239l1.063 1.062c.422-.426 1.004-.68 2.016-.812C6.75 2.75 8.113 2.75 10.03 2.75ZM2.848 6.074c.12-1.234.382-1.902.855-2.37L2.641 2.64c-.836.836-1.153 1.921-1.286 3.285Zm18.304 11.852c-.12 1.234-.382 1.902-.855 2.37l1.062 1.063c.836-.836 1.153-1.922 1.286-3.285Zm0 0" style="stroke:none;fill-rule:nonzero;fill:#1c274c;fill-opacity:1"/></svg>